<?xml version="1.0" standalone="no"?><!-- Generator: Gravit.io --><svg xmlns="http://www.w3.org/2000/svg" xmlns:xlink="http://www.w3.org/1999/xlink" style="isolation:isolate" viewBox="0 0 500 200" width="500" height="200"><defs><clipPath id="_clipPath_M9JtwDStGjLyT3F4ShbHqAnwIlwvBiCU"><rect width="500" height="200"/></clipPath></defs><g clip-path="url(#_clipPath_M9JtwDStGjLyT3F4ShbHqAnwIlwvBiCU)"><g opacity="0.81"><path d=" M 75.376 107.892 L 75.376 107.892 L 75.376 107.892 Q 75.376 107.892 81.72 105.143 L 81.72 105.143 L 82.073 105.143 L 82.073 105.143 Q 84.152 112.756 90.708 112.756 L 90.708 112.756 L 90.708 112.756 Q 95.255 112.756 99.696 108.703 L 99.696 108.703 L 99.696 108.703 Q 102.868 105.813 103.996 101.196 L 103.996 101.196 L 103.996 101.196 Q 104.278 100.032 104.278 99.01 L 104.278 99.01 L 104.278 99.01 Q 104.278 96.86 103.114 95.274 L 103.114 95.274 L 103.114 95.274 Q 101.035 92.455 96.277 91.397 L 96.277 91.397 L 96.277 91.397 Q 91.06 90.234 87.818 87.45 L 87.818 87.45 L 87.818 87.45 Q 84.787 84.842 84.787 80.894 L 84.787 80.894 L 84.787 80.894 Q 84.787 79.625 85.104 78.145 L 85.104 78.145 L 85.104 78.145 Q 86.619 71.765 92.083 67.712 L 92.083 67.712 L 92.083 67.712 Q 96.911 64.117 102.973 64.117 L 102.973 64.117 L 102.973 64.117 Q 110.868 64.117 113.406 72.153 L 113.406 72.153 L 107.203 74.797 L 106.85 74.797 L 106.85 74.797 Q 105.582 70.109 101.599 70.109 L 101.599 70.109 L 101.599 70.109 Q 98.251 70.109 95.642 72.259 L 95.642 72.259 L 95.642 72.259 Q 93.069 74.374 92.294 77.616 L 92.294 77.616 L 92.294 77.616 Q 92.083 78.497 92.083 79.237 L 92.083 79.237 L 92.083 79.237 Q 92.083 80.965 93.14 82.057 L 93.14 82.057 L 93.14 82.057 Q 95.043 84.101 99.731 85.088 L 99.731 85.088 L 99.731 85.088 Q 106.075 86.428 109.318 90.587 L 109.318 90.587 L 109.318 90.587 Q 111.573 93.477 111.573 97.459 L 111.573 97.459 L 111.573 97.459 Q 111.573 99.363 111.08 101.407 L 111.08 101.407 L 111.08 101.407 Q 109.6 107.998 103.22 113.391 L 103.22 113.391 L 103.22 113.391 Q 96.876 118.748 89.298 118.748 L 89.298 118.748 L 89.298 118.748 Q 78.76 118.748 75.376 107.892 Z  M 129.231 68.452 L 129.231 68.452 L 129.231 68.452 Q 129.654 66.655 131.17 65.386 L 131.17 65.386 L 131.17 65.386 Q 132.686 64.117 134.483 64.117 L 134.483 64.117 L 134.483 64.117 Q 136.281 64.117 137.197 65.386 L 137.197 65.386 L 137.197 65.386 Q 137.867 66.302 137.867 67.395 L 137.867 67.395 L 137.867 67.395 Q 137.867 67.818 137.726 68.452 L 137.726 68.452 L 137.726 68.452 Q 137.197 70.32 135.787 71.483 L 135.787 71.483 L 135.787 71.483 Q 134.236 72.752 132.439 72.752 L 132.439 72.752 L 132.439 72.752 Q 130.677 72.752 129.725 71.448 L 129.725 71.448 L 129.725 71.448 Q 129.09 70.602 129.09 69.58 L 129.09 69.58 L 129.09 69.58 Q 129.09 69.087 129.231 68.452 Z  M 130.959 113.813 L 127.011 119.453 L 127.011 119.453 Q 119.645 119.453 119.645 114.166 L 119.645 114.166 L 119.645 114.166 Q 119.645 113.144 119.927 111.91 L 119.927 111.91 L 127.046 81.035 L 134.483 77.863 L 134.836 77.863 L 126.976 111.91 L 126.976 111.91 Q 126.623 113.461 128.315 113.461 L 128.315 113.461 L 131.029 113.461 L 130.959 113.813 L 130.959 113.813 Z  M 160.6 119.453 L 160.248 119.453 L 165.041 98.658 L 165.041 98.658 Q 166.028 94.323 166.028 91.573 L 166.028 91.573 L 166.028 91.573 Q 166.028 90.199 165.781 89.212 L 165.781 89.212 L 165.781 89.212 Q 164.618 84.56 160.494 84.56 L 160.494 84.56 L 160.494 84.56 Q 156.512 84.56 153.093 89.212 L 153.093 89.212 L 153.093 89.212 Q 150.978 92.102 149.427 98.658 L 149.427 98.658 L 149.427 98.658 Q 148.511 102.535 148.511 105.496 L 148.511 105.496 L 148.511 105.496 Q 148.511 106.941 148.722 108.104 L 148.722 108.104 L 148.722 108.104 Q 149.568 112.721 153.445 114.201 L 153.445 114.201 L 149.603 119.453 L 149.251 119.453 L 149.251 119.453 Q 143.717 117.056 142.167 110.606 L 142.167 110.606 L 142.167 110.606 Q 141.567 108.139 141.567 105.39 L 141.567 105.39 L 141.567 105.39 Q 141.567 102.253 142.378 98.658 L 142.378 98.658 L 142.378 98.658 Q 144.035 91.397 147.665 86.71 L 147.665 86.71 L 147.665 86.71 Q 154.009 78.568 161.904 78.568 L 161.904 78.568 L 161.904 78.568 Q 168.918 78.568 171.702 85.053 L 171.702 85.053 L 171.702 85.053 Q 177.518 78.568 184.532 78.568 L 184.532 78.568 L 184.532 78.568 Q 192.321 78.568 194.965 86.71 L 194.965 86.71 L 194.965 86.71 Q 195.67 88.895 195.67 91.644 L 195.67 91.644 L 195.67 91.644 Q 195.67 94.851 194.753 98.658 L 194.753 98.658 L 194.753 98.658 Q 192.779 107.187 184.708 112.051 L 184.708 112.051 L 193.414 112.051 L 193.343 112.404 L 189.396 118.043 L 172.901 118.043 L 172.971 117.69 L 176.919 112.051 L 176.919 112.051 Q 181.924 109.055 184.074 106.271 L 184.074 106.271 L 184.074 106.271 Q 186.752 102.852 187.704 98.658 L 187.704 98.658 L 187.704 98.658 Q 188.691 94.393 188.691 91.644 L 188.691 91.644 L 188.691 91.644 Q 188.691 90.199 188.409 89.212 L 188.409 89.212 L 188.409 89.212 Q 187.246 84.56 183.122 84.56 L 183.122 84.56 L 183.122 84.56 Q 179.139 84.56 175.72 89.212 L 175.72 89.212 L 175.72 89.212 Q 173.606 92.102 172.09 98.658 L 172.09 98.658 L 168.037 116.281 L 160.6 119.453 L 160.6 119.453 Z  M 198.242 133.903 L 197.89 133.903 L 206.032 98.658 L 206.032 98.658 Q 207.724 91.292 211.319 86.71 L 211.319 86.71 L 211.319 86.71 Q 217.698 78.568 225.558 78.568 L 225.558 78.568 L 225.558 78.568 Q 233.277 78.568 235.955 86.71 L 235.955 86.71 L 235.955 86.71 Q 236.66 88.86 236.66 91.644 L 236.66 91.644 L 236.66 91.644 Q 236.66 94.71 235.779 98.658 L 235.779 98.658 L 235.779 98.658 Q 233.805 107.187 225.734 112.051 L 225.734 112.051 L 234.44 112.051 L 234.369 112.404 L 230.422 118.043 L 213.927 118.043 L 213.997 117.69 L 217.945 112.051 L 217.945 112.051 Q 222.914 109.055 225.1 106.271 L 225.1 106.271 L 225.1 106.271 Q 227.778 102.817 228.73 98.658 L 228.73 98.658 L 228.73 98.658 Q 229.717 94.323 229.717 91.609 L 229.717 91.609 L 229.717 91.609 Q 229.717 90.199 229.435 89.212 L 229.435 89.212 L 229.435 89.212 Q 228.237 84.56 224.148 84.56 L 224.148 84.56 L 224.148 84.56 Q 220.13 84.56 216.711 89.247 L 216.711 89.247 L 216.711 89.247 Q 214.632 92.102 213.116 98.658 L 213.116 98.658 L 205.679 130.731 L 198.242 133.903 L 198.242 133.903 Z  M 256.081 113.813 L 252.133 119.453 L 252.133 119.453 Q 244.767 119.453 244.767 114.166 L 244.767 114.166 L 244.767 114.166 Q 244.767 113.144 245.049 111.91 L 245.049 111.91 L 255.517 66.584 L 262.953 63.412 L 263.306 63.412 L 252.098 111.91 L 252.098 111.91 Q 251.745 113.461 253.437 113.461 L 253.437 113.461 L 256.151 113.461 L 256.081 113.813 L 256.081 113.813 Z  M 294.921 104.755 L 295.274 104.755 L 295.274 104.755 Q 293.864 108.139 291.925 110.606 L 291.925 110.606 L 291.925 110.606 Q 285.581 118.748 277.686 118.748 L 277.686 118.748 L 277.686 118.748 Q 270.003 118.748 267.289 110.606 L 267.289 110.606 L 267.289 110.606 Q 266.584 108.491 266.584 105.742 L 266.584 105.742 L 266.584 105.742 Q 266.584 102.5 267.5 98.658 L 267.5 98.658 L 267.5 98.658 Q 269.121 91.468 272.787 86.71 L 272.787 86.71 L 272.787 86.71 Q 279.061 78.568 286.991 78.568 L 286.991 78.568 L 286.991 78.568 Q 293.018 78.568 295.873 82.339 L 295.873 82.339 L 295.873 82.339 Q 298.093 85.264 298.093 88.613 L 298.093 88.613 L 298.093 88.613 Q 298.093 89.882 297.776 91.186 L 297.776 91.186 L 297.776 91.186 Q 296.472 96.578 291.925 100.596 L 291.925 100.596 L 291.925 100.596 Q 287.414 104.579 280.788 104.579 L 280.788 104.579 L 278.074 104.579 L 278.18 104.227 L 282.092 98.587 L 282.092 98.587 Q 285.898 98.587 288.013 96.543 L 288.013 96.543 L 288.013 96.543 Q 290.093 94.534 290.939 91.115 L 290.939 91.115 L 290.939 91.115 Q 291.15 90.269 291.15 89.494 L 291.15 89.494 L 291.15 89.494 Q 291.15 87.767 290.198 86.533 L 290.198 86.533 L 290.198 86.533 Q 288.789 84.56 285.581 84.56 L 285.581 84.56 L 285.581 84.56 Q 281.281 84.56 278.18 89.212 L 278.18 89.212 L 278.18 89.212 Q 275.924 92.596 274.549 98.658 L 274.549 98.658 L 274.549 98.658 Q 273.562 103.028 273.562 105.742 L 273.562 105.742 L 273.562 105.742 Q 273.562 107.117 273.809 108.104 L 273.809 108.104 L 273.809 108.104 Q 275.148 112.756 279.096 112.756 L 279.096 112.756 L 279.096 112.756 Q 283.114 112.756 286.498 108.104 L 286.498 108.104 L 294.921 104.755 L 294.921 104.755 Z " fill-rule="evenodd" fill="rgb(0,0,0)"/></g><g style="opacity:0.81;"><g><g><path d=" M 429.202 95.856 L 420.518 95.856 L 420.518 92.162 C 420.518 91.282 419.901 90.516 419.021 90.303 L 413.176 88.891 L 410.121 81.737 L 413.222 76.731 C 413.689 75.977 413.567 75.012 412.926 74.39 L 404.748 66.456 C 404.107 65.834 403.112 65.716 402.335 66.169 L 397.176 69.178 L 389.802 66.213 L 388.346 60.542 C 388.127 59.689 387.337 59.09 386.43 59.09 L 382.623 59.09 L 382.623 50.665 C 382.623 49.607 381.74 48.75 380.649 48.75 C 379.559 48.75 378.676 49.607 378.676 50.665 L 378.676 59.09 L 374.868 59.09 C 373.962 59.09 373.172 59.689 372.953 60.542 L 371.497 66.213 L 364.123 69.178 L 358.963 66.169 C 358.186 65.715 357.191 65.834 356.551 66.456 L 348.373 74.39 C 347.732 75.012 347.61 75.977 348.077 76.731 L 351.178 81.737 L 348.122 88.891 L 342.278 90.303 C 341.398 90.516 340.781 91.282 340.781 92.162 L 340.781 95.856 L 332.097 95.856 C 331.007 95.856 330.123 96.713 330.123 97.771 C 330.123 98.828 331.007 99.686 332.097 99.686 L 340.781 99.686 L 340.781 103.38 C 340.781 104.259 341.398 105.026 342.278 105.238 L 348.123 106.651 L 351.178 113.805 L 348.077 118.811 C 347.61 119.565 347.732 120.53 348.373 121.152 L 356.551 129.086 C 357.192 129.708 358.187 129.826 358.963 129.373 L 364.123 126.364 L 371.497 129.329 L 372.953 134.999 C 373.172 135.853 373.962 136.451 374.868 136.451 L 378.676 136.451 L 378.676 144.877 C 378.676 145.934 379.56 146.792 380.65 146.792 C 381.74 146.792 382.623 145.934 382.623 144.877 L 382.623 136.451 L 386.431 136.451 C 387.338 136.451 388.127 135.853 388.346 134.999 L 389.803 129.329 L 397.176 126.364 L 402.336 129.373 C 403.113 129.826 404.108 129.708 404.749 129.086 L 412.927 121.152 C 413.568 120.53 413.69 119.565 413.223 118.811 L 410.121 113.805 L 413.177 106.651 L 419.022 105.238 C 419.901 105.026 420.518 104.259 420.518 103.38 L 420.518 99.686 L 429.202 99.686 C 430.293 99.686 431.176 98.828 431.176 97.771 C 431.176 96.713 430.292 95.856 429.202 95.856 Z  M 416.57 101.884 L 411.257 103.168 C 410.65 103.315 410.15 103.732 409.911 104.293 L 406.093 113.231 C 405.853 113.792 405.902 114.43 406.225 114.951 L 409.044 119.502 L 403.048 125.32 L 398.357 122.584 C 397.82 122.271 397.162 122.224 396.584 122.457 L 387.372 126.161 C 386.794 126.393 386.364 126.878 386.212 127.467 L 384.888 132.622 L 376.41 132.622 L 375.086 127.467 C 374.935 126.878 374.505 126.393 373.927 126.161 L 364.714 122.457 C 364.136 122.224 363.478 122.271 362.942 122.584 L 358.251 125.32 L 352.254 119.502 L 355.074 114.951 C 355.396 114.43 355.445 113.792 355.205 113.231 L 351.388 104.293 C 351.148 103.732 350.649 103.315 350.041 103.168 L 344.728 101.884 L 344.728 93.658 L 350.042 92.374 C 350.649 92.227 351.148 91.809 351.388 91.249 L 355.206 82.311 C 355.445 81.75 355.396 81.112 355.074 80.591 L 352.254 76.04 L 358.251 70.222 L 362.942 72.958 C 363.478 73.27 364.136 73.318 364.714 73.085 L 373.927 69.381 C 374.505 69.149 374.935 68.664 375.086 68.075 L 376.41 62.92 L 384.888 62.92 L 386.212 68.075 C 386.364 68.664 386.794 69.149 387.372 69.381 L 396.584 73.085 C 397.163 73.318 397.82 73.27 398.357 72.958 L 403.047 70.222 L 409.044 76.04 L 406.225 80.591 C 405.902 81.112 405.853 81.75 406.093 82.311 L 409.911 91.249 C 410.15 91.809 410.65 92.227 411.257 92.374 L 416.57 93.658 L 416.57 101.884 L 416.57 101.884 Z " fill="rgb(0,0,0)"/></g></g><g><g><path d=" M 389.354 74.755 C 388.33 74.391 387.196 74.9 386.821 75.893 C 386.445 76.885 386.97 77.986 387.993 78.35 C 396.35 81.326 401.965 89.13 401.965 97.771 C 401.965 109.174 392.403 118.452 380.649 118.452 C 368.896 118.452 359.334 109.174 359.334 97.771 C 359.334 89.595 364.313 82.17 372.019 78.855 C 373.016 78.426 373.465 77.295 373.023 76.328 C 372.582 75.362 371.415 74.925 370.419 75.354 C 361.287 79.282 355.387 88.081 355.387 97.771 C 355.387 111.286 366.719 122.281 380.65 122.281 C 394.58 122.281 405.913 111.286 405.913 97.771 C 405.913 87.531 399.258 78.281 389.354 74.755 Z " fill="rgb(0,0,0)"/></g></g><g><g><path d=" M 380.754 73.261 L 380.649 73.261 C 379.559 73.261 378.676 74.118 378.676 75.175 C 378.676 76.233 379.559 77.09 380.649 77.09 L 380.742 77.091 C 380.744 77.091 380.746 77.091 380.748 77.091 C 381.836 77.091 382.719 76.237 382.722 75.181 C 382.725 74.124 381.844 73.264 380.754 73.261 Z " fill="rgb(0,0,0)"/></g></g><g><g><path d=" M 394.399 90.153 C 393.309 90.153 392.426 91.011 392.426 92.068 L 392.426 103.23 C 392.426 104.287 393.309 105.144 394.399 105.144 C 395.49 105.144 396.373 104.287 396.373 103.23 L 396.373 92.068 C 396.373 91.01 395.49 90.153 394.399 90.153 Z " fill="rgb(0,0,0)"/></g></g><g><g><path d=" M 384.828 90.153 L 380.762 90.153 C 379.671 90.153 378.788 91.011 378.788 92.068 L 378.788 95.886 L 378.788 98.498 L 378.788 103.229 C 378.788 104.287 379.671 105.144 380.762 105.144 C 381.852 105.144 382.735 104.287 382.735 103.229 L 382.735 100.413 L 384.828 100.413 C 387.581 100.413 389.822 98.24 389.822 95.569 L 389.822 94.998 C 389.821 92.327 387.581 90.153 384.828 90.153 Z  M 385.874 95.568 C 385.874 96.128 385.405 96.584 384.828 96.584 L 382.735 96.584 L 382.735 95.886 L 382.735 93.983 L 384.828 93.983 C 385.405 93.983 385.874 94.438 385.874 94.998 L 385.874 95.568 Z " fill="rgb(0,0,0)"/></g></g><g><g><path d=" M 376.674 102.767 L 371.608 91.313 C 371.297 90.609 370.583 90.153 369.794 90.153 C 369.005 90.153 368.292 90.609 367.98 91.313 L 362.914 102.767 C 362.485 103.739 362.948 104.865 363.95 105.282 C 364.952 105.699 366.112 105.249 366.542 104.277 L 369.794 96.924 L 373.046 104.277 C 373.367 105.003 374.096 105.438 374.861 105.438 C 375.121 105.438 375.385 105.387 375.638 105.282 C 376.64 104.865 377.104 103.739 376.674 102.767 Z " fill="rgb(0,0,0)"/></g></g><g><g><path d=" M 424.469 48.75 C 420.769 48.75 417.758 51.671 417.758 55.261 C 417.758 56.359 418.041 57.394 418.538 58.303 L 410.987 65.629 C 410.216 66.376 410.216 67.589 410.987 68.337 C 411.373 68.711 411.878 68.897 412.383 68.897 C 412.888 68.897 413.393 68.711 413.779 68.337 L 421.328 61.012 C 422.266 61.496 423.335 61.771 424.469 61.771 C 428.169 61.771 431.179 58.851 431.179 55.261 C 431.179 51.67 428.169 48.75 424.469 48.75 Z  M 424.469 57.942 C 422.945 57.942 421.706 56.739 421.706 55.261 C 421.706 53.782 422.945 52.58 424.469 52.58 C 425.993 52.58 427.232 53.783 427.232 55.261 C 427.232 56.739 425.993 57.942 424.469 57.942 Z " fill="rgb(0,0,0)"/></g></g><g><g><path d=" M 350.311 127.204 C 349.541 126.457 348.291 126.457 347.52 127.205 L 339.972 134.528 C 339.035 134.045 337.967 133.77 336.834 133.77 C 333.133 133.77 330.123 136.691 330.123 140.281 C 330.123 143.871 333.133 146.791 336.834 146.791 C 340.534 146.791 343.544 143.871 343.544 140.281 C 343.544 139.181 343.261 138.145 342.763 137.236 L 350.312 129.913 C 351.082 129.165 351.082 127.952 350.311 127.204 Z  M 336.834 142.962 C 335.31 142.962 334.071 141.759 334.071 140.281 C 334.071 138.803 335.31 137.6 336.834 137.6 C 338.358 137.6 339.597 138.803 339.597 140.281 C 339.597 141.759 338.357 142.962 336.834 142.962 Z " fill="rgb(0,0,0)"/></g></g><g><g><path d=" M 413.78 127.204 C 413.41 126.848 412.901 126.643 412.382 126.643 C 411.863 126.643 411.354 126.848 410.987 127.204 C 410.62 127.56 410.408 128.054 410.408 128.558 C 410.408 129.062 410.62 129.556 410.987 129.912 C 411.354 130.268 411.863 130.473 412.382 130.473 C 412.903 130.473 413.41 130.268 413.78 129.912 C 414.147 129.556 414.356 129.063 414.356 128.558 C 414.356 128.054 414.147 127.56 413.78 127.204 Z " fill="rgb(0,0,0)"/></g></g><g><g><path d=" M 424.469 133.77 C 423.335 133.77 422.266 134.046 421.329 134.53 L 417.994 131.295 C 417.223 130.547 415.974 130.547 415.203 131.295 C 414.432 132.043 414.432 133.255 415.203 134.003 L 418.539 137.239 C 418.042 138.148 417.759 139.183 417.759 140.281 C 417.759 143.871 420.769 146.792 424.469 146.792 C 428.17 146.792 431.18 143.871 431.18 140.281 C 431.18 136.691 428.169 133.77 424.469 133.77 Z  M 424.469 142.962 C 422.945 142.962 421.706 141.759 421.706 140.281 C 421.706 138.803 422.945 137.6 424.469 137.6 C 425.993 137.6 427.232 138.803 427.232 140.281 C 427.232 141.759 425.993 142.962 424.469 142.962 Z " fill="rgb(0,0,0)"/></g></g><g><g><path d=" M 350.311 65.629 L 342.763 58.305 C 343.261 57.396 343.544 56.36 343.544 55.261 C 343.544 51.671 340.534 48.75 336.834 48.75 C 333.133 48.75 330.123 51.671 330.123 55.261 C 330.123 58.851 333.133 61.771 336.834 61.771 C 337.967 61.771 339.035 61.496 339.972 61.013 L 347.52 68.337 C 347.906 68.711 348.411 68.898 348.916 68.898 C 349.421 68.898 349.926 68.711 350.312 68.337 C 351.082 67.589 351.082 66.376 350.311 65.629 Z  M 336.834 57.942 C 335.31 57.942 334.071 56.739 334.071 55.261 C 334.071 53.782 335.31 52.58 336.834 52.58 C 338.358 52.58 339.597 53.783 339.597 55.261 C 339.597 56.739 338.357 57.942 336.834 57.942 Z " fill="rgb(0,0,0)"/></g></g></g></g></svg>