<?xml version="1.0" standalone="no"?><!-- Generator: Gravit.io --><svg xmlns="http://www.w3.org/2000/svg" xmlns:xlink="http://www.w3.org/1999/xlink" style="isolation:isolate" viewBox="0 0 180 180" width="180" height="180"><defs><clipPath id="_clipPath_FSUFkzUHs9ByYn71rrfCXlIBzB7edzvg"><rect width="180" height="180"/></clipPath></defs><g clip-path="url(#_clipPath_FSUFkzUHs9ByYn71rrfCXlIBzB7edzvg)"><g style="mix-blend-mode:normal;" opacity="0.81"><g transform="matrix(1,0,0,1,22,70)"><text transform="matrix(1,0,0,1,2.314,28.799)" style="font-family:&quot;Nova Script&quot;;font-weight:400;font-size:30px;font-style:normal;fill:#000000;stroke:none;">Simpel</text></g></g><g style="opacity:0.81;"><g><g><path d=" M 157.432 89.434 L 154.94 89.434 L 154.94 88.341 C 154.94 88.081 154.763 87.854 154.511 87.791 L 152.834 87.373 L 151.957 85.257 L 152.847 83.777 C 152.981 83.554 152.946 83.268 152.762 83.084 L 150.415 80.738 C 150.231 80.554 149.945 80.519 149.723 80.653 L 148.242 81.543 L 146.126 80.666 L 145.708 78.988 C 145.645 78.736 145.418 78.559 145.158 78.559 L 144.066 78.559 L 144.066 76.067 C 144.066 75.754 143.812 75.501 143.499 75.501 C 143.187 75.501 142.933 75.754 142.933 76.067 L 142.933 78.559 L 141.84 78.559 C 141.58 78.559 141.354 78.736 141.291 78.988 L 140.873 80.666 L 138.757 81.543 L 137.276 80.653 C 137.053 80.519 136.768 80.554 136.584 80.738 L 134.237 83.084 C 134.053 83.268 134.018 83.554 134.152 83.777 L 135.042 85.257 L 134.165 87.373 L 132.488 87.791 C 132.236 87.854 132.058 88.081 132.058 88.341 L 132.058 89.434 L 129.566 89.434 C 129.254 89.434 129 89.687 129 90 C 129 90.313 129.254 90.566 129.566 90.566 L 132.058 90.566 L 132.058 91.659 C 132.058 91.919 132.236 92.146 132.488 92.209 L 134.165 92.627 L 135.042 94.743 L 134.152 96.223 C 134.018 96.446 134.053 96.732 134.237 96.916 L 136.584 99.263 C 136.768 99.446 137.053 99.481 137.276 99.347 L 138.757 98.457 L 140.873 99.334 L 141.291 101.012 C 141.354 101.264 141.58 101.441 141.84 101.441 L 142.933 101.441 L 142.933 103.933 C 142.933 104.246 143.187 104.499 143.499 104.499 C 143.812 104.499 144.066 104.246 144.066 103.933 L 144.066 101.441 L 145.159 101.441 C 145.419 101.441 145.645 101.264 145.708 101.012 L 146.126 99.334 L 148.242 98.457 L 149.723 99.347 C 149.946 99.481 150.231 99.446 150.415 99.263 L 152.762 96.916 C 152.946 96.732 152.981 96.446 152.847 96.223 L 151.957 94.743 L 152.834 92.627 L 154.511 92.209 C 154.763 92.146 154.941 91.919 154.941 91.659 L 154.941 90.566 L 157.433 90.566 C 157.745 90.566 157.999 90.313 157.999 90 C 157.999 89.687 157.745 89.434 157.432 89.434 Z  M 153.808 91.217 L 152.283 91.596 C 152.109 91.64 151.965 91.763 151.896 91.929 L 150.801 94.573 C 150.732 94.739 150.746 94.928 150.839 95.082 L 151.648 96.428 L 149.927 98.149 L 148.581 97.339 C 148.427 97.247 148.238 97.233 148.072 97.302 L 145.429 98.397 C 145.263 98.466 145.139 98.609 145.096 98.784 L 144.716 100.308 L 142.283 100.308 L 141.903 98.784 C 141.86 98.609 141.736 98.466 141.57 98.397 L 138.927 97.302 C 138.761 97.233 138.572 97.247 138.418 97.339 L 137.072 98.149 L 135.351 96.428 L 136.16 95.082 C 136.253 94.928 136.267 94.739 136.198 94.573 L 135.102 91.929 C 135.033 91.763 134.89 91.64 134.716 91.596 L 133.191 91.217 L 133.191 88.783 L 134.716 88.404 C 134.89 88.36 135.034 88.237 135.102 88.071 L 136.198 85.427 C 136.267 85.261 136.253 85.072 136.16 84.919 L 135.351 83.572 L 137.072 81.852 L 138.418 82.661 C 138.572 82.753 138.761 82.767 138.927 82.698 L 141.57 81.603 C 141.736 81.534 141.86 81.391 141.903 81.217 L 142.283 79.692 L 144.716 79.692 L 145.096 81.217 C 145.139 81.391 145.263 81.534 145.429 81.603 L 148.072 82.698 C 148.238 82.767 148.427 82.753 148.581 82.661 L 149.927 81.852 L 151.648 83.572 L 150.839 84.919 C 150.746 85.072 150.732 85.261 150.801 85.427 L 151.896 88.071 C 151.965 88.237 152.109 88.36 152.283 88.404 L 153.808 88.783 L 153.808 91.217 L 153.808 91.217 Z " fill="rgb(0,0,0)"/></g></g><g><g><path d=" M 145.997 83.192 C 145.704 83.085 145.378 83.235 145.27 83.529 C 145.163 83.822 145.313 84.148 145.607 84.256 C 148.005 85.136 149.616 87.444 149.616 90 C 149.616 93.373 146.872 96.117 143.499 96.117 C 140.126 96.117 137.382 93.373 137.382 90 C 137.382 87.582 138.811 85.385 141.023 84.405 C 141.309 84.278 141.438 83.944 141.311 83.658 C 141.184 83.372 140.85 83.243 140.564 83.37 C 137.943 84.531 136.25 87.134 136.25 90 C 136.25 93.997 139.502 97.25 143.499 97.25 C 147.497 97.25 150.749 93.997 150.749 90 C 150.749 86.971 148.839 84.235 145.997 83.192 Z " fill="rgb(0,0,0)"/></g></g><g><g><path d=" M 143.529 82.75 L 143.499 82.75 C 143.187 82.75 142.933 83.004 142.933 83.317 C 142.933 83.63 143.187 83.883 143.499 83.883 L 143.526 83.883 C 143.527 83.883 143.527 83.883 143.528 83.883 C 143.84 83.883 144.093 83.631 144.094 83.318 C 144.095 83.006 143.842 82.751 143.529 82.75 Z " fill="rgb(0,0,0)"/></g></g><g><g><path d=" M 147.445 87.747 C 147.132 87.747 146.879 88 146.879 88.313 L 146.879 91.615 C 146.879 91.927 147.132 92.181 147.445 92.181 C 147.758 92.181 148.012 91.927 148.012 91.615 L 148.012 88.313 C 148.012 88 147.758 87.747 147.445 87.747 Z " fill="rgb(0,0,0)"/></g></g><g><g><path d=" M 144.699 87.747 L 143.532 87.747 C 143.219 87.747 142.965 88 142.965 88.313 L 142.965 89.443 L 142.965 90.215 L 142.965 91.615 C 142.965 91.927 143.219 92.181 143.532 92.181 C 143.844 92.181 144.098 91.927 144.098 91.615 L 144.098 90.782 L 144.699 90.782 C 145.489 90.782 146.132 90.139 146.132 89.349 L 146.132 89.18 C 146.132 88.39 145.489 87.747 144.699 87.747 Z  M 144.999 89.349 C 144.999 89.514 144.864 89.649 144.699 89.649 L 144.098 89.649 L 144.098 89.443 L 144.098 88.88 L 144.699 88.88 C 144.864 88.88 144.999 89.014 144.999 89.18 L 144.999 89.349 Z " fill="rgb(0,0,0)"/></g></g><g><g><path d=" M 142.359 91.478 L 140.905 88.09 C 140.816 87.882 140.611 87.747 140.384 87.747 C 140.158 87.747 139.953 87.882 139.864 88.09 L 138.41 91.478 C 138.287 91.765 138.42 92.098 138.707 92.222 C 138.995 92.345 139.328 92.212 139.451 91.924 L 140.384 89.75 L 141.318 91.924 C 141.41 92.139 141.619 92.268 141.838 92.268 C 141.913 92.268 141.989 92.253 142.061 92.222 C 142.349 92.098 142.482 91.765 142.359 91.478 Z " fill="rgb(0,0,0)"/></g></g><g><g><path d=" M 156.074 75.501 C 155.012 75.501 154.149 76.364 154.149 77.426 C 154.149 77.751 154.23 78.057 154.372 78.326 L 152.205 80.493 C 151.984 80.714 151.984 81.073 152.205 81.294 C 152.316 81.405 152.461 81.46 152.606 81.46 C 152.751 81.46 152.896 81.405 153.006 81.294 L 155.173 79.127 C 155.442 79.27 155.749 79.352 156.074 79.352 C 157.136 79.352 158 78.488 158 77.426 C 158 76.364 157.136 75.501 156.074 75.501 Z  M 156.074 78.219 C 155.637 78.219 155.281 77.864 155.281 77.426 C 155.281 76.989 155.637 76.633 156.074 76.633 C 156.512 76.633 156.867 76.989 156.867 77.426 C 156.867 77.864 156.512 78.219 156.074 78.219 Z " fill="rgb(0,0,0)"/></g></g><g><g><path d=" M 134.793 98.706 C 134.572 98.485 134.214 98.485 133.992 98.706 L 131.826 100.872 C 131.557 100.729 131.251 100.648 130.926 100.648 C 129.864 100.648 129 101.512 129 102.574 C 129 103.636 129.864 104.499 130.926 104.499 C 131.988 104.499 132.851 103.636 132.851 102.574 C 132.851 102.249 132.77 101.942 132.627 101.673 L 134.793 99.507 C 135.015 99.286 135.015 98.927 134.793 98.706 Z  M 130.926 103.367 C 130.488 103.367 130.133 103.011 130.133 102.574 C 130.133 102.137 130.489 101.781 130.926 101.781 C 131.363 101.781 131.719 102.137 131.719 102.574 C 131.719 103.011 131.363 103.367 130.926 103.367 Z " fill="rgb(0,0,0)"/></g></g><g><g><path d=" M 153.007 98.706 C 152.901 98.601 152.755 98.54 152.606 98.54 C 152.457 98.54 152.311 98.6 152.205 98.706 C 152.1 98.811 152.039 98.957 152.039 99.106 C 152.039 99.255 152.1 99.401 152.205 99.507 C 152.311 99.612 152.457 99.673 152.606 99.673 C 152.755 99.673 152.901 99.612 153.007 99.507 C 153.112 99.401 153.172 99.256 153.172 99.106 C 153.172 98.957 153.112 98.811 153.007 98.706 Z " fill="rgb(0,0,0)"/></g></g><g><g><path d=" M 156.074 100.648 C 155.749 100.648 155.442 100.729 155.173 100.873 L 154.216 99.916 C 153.995 99.695 153.636 99.695 153.415 99.916 C 153.194 100.137 153.194 100.496 153.415 100.717 L 154.372 101.674 C 154.23 101.943 154.149 102.249 154.149 102.574 C 154.149 103.636 155.012 104.499 156.074 104.499 C 157.136 104.499 158 103.636 158 102.574 C 158 101.512 157.136 100.648 156.074 100.648 Z  M 156.074 103.367 C 155.637 103.367 155.281 103.011 155.281 102.574 C 155.281 102.137 155.637 101.781 156.074 101.781 C 156.512 101.781 156.867 102.137 156.867 102.574 C 156.867 103.011 156.512 103.367 156.074 103.367 Z " fill="rgb(0,0,0)"/></g></g><g><g><path d=" M 134.793 80.493 L 132.627 78.327 C 132.77 78.058 132.851 77.751 132.851 77.426 C 132.851 76.364 131.988 75.501 130.926 75.501 C 129.864 75.501 129 76.364 129 77.426 C 129 78.488 129.864 79.352 130.926 79.352 C 131.251 79.352 131.557 79.271 131.826 79.128 L 133.992 81.294 C 134.103 81.405 134.248 81.46 134.393 81.46 C 134.538 81.46 134.683 81.405 134.793 81.294 C 135.015 81.073 135.015 80.714 134.793 80.493 Z  M 130.926 78.219 C 130.488 78.219 130.133 77.864 130.133 77.426 C 130.133 76.989 130.489 76.633 130.926 76.633 C 131.363 76.633 131.719 76.989 131.719 77.426 C 131.719 77.864 131.363 78.219 130.926 78.219 Z " fill="rgb(0,0,0)"/></g></g></g></g></svg>